<svg xmlns="http://www.w3.org/2000/svg" viewBox="0 0 64 64" fill="none">
  <!-- Background circle -->
  <circle cx="32" cy="32" r="32" fill="#0d9488"/>
  <!-- Book shape -->
  <rect x="14" y="18" width="16" height="28" rx="2" fill="#f0fdfa"/>
  <rect x="34" y="18" width="16" height="28" rx="2" fill="#ccfbf1"/>
  <!-- Spine -->
  <rect x="29" y="16" width="6" height="32" rx="1" fill="#0f766e"/>
  <!-- Lines on left page -->
  <rect x="17" y="25" width="10" height="1.5" rx="1" fill="#99f6e4"/>
  <rect x="17" y="29" width="10" height="1.5" rx="1" fill="#99f6e4"/>
  <rect x="17" y="33" width="7" height="1.5" rx="1" fill="#99f6e4"/>
  <!-- Lines on right page -->
  <rect x="37" y="25" width="10" height="1.5" rx="1" fill="#5eead4"/>
  <rect x="37" y="29" width="10" height="1.5" rx="1" fill="#5eead4"/>
  <rect x="37" y="33" width="7" height="1.5" rx="1" fill="#5eead4"/>
  <!-- Star accent -->
  <circle cx="46" cy="18" r="7" fill="#f59e0b"/>
  <path d="M46 12.5l1.2 3.7h3.8l-3.1 2.3 1.2 3.7L46 19.9l-3.1 2.3 1.2-3.7-3.1-2.3h3.8z" fill="white"/>
</svg>
